<svg width="92" height="110" viewBox="0 0 92 110" fill="none" xmlns="http://www.w3.org/2000/svg">
<path d="M9.16513 73.3333C4.10337 73.3333 0 77.4367 0 82.4985V100C0 105.523 4.47715 110 10 110H81.6636C87.1865 110 91.6636 105.523 91.6636 100V9.16513C91.6636 4.10337 87.5602 0 82.4985 0C77.4367 0 73.3334 4.10337 73.3334 9.16513V89.6697C73.3334 90.7743 72.4379 91.6697 71.3334 91.6697H20.3303C19.2257 91.6697 18.3303 90.7743 18.3303 89.6697V82.4985C18.3303 77.4367 14.2269 73.3333 9.16513 73.3333Z" fill="white"/>
<path d="M10.0703 0.0209961C4.54746 0.0209961 0.0703125 4.49815 0.0703125 10.021V45.0241C0.0703125 50.5469 4.54746 55.0241 10.0703 55.0241H34.737C35.8415 55.0241 36.737 55.9195 36.737 57.0241V64.1892C36.737 69.251 40.8403 73.3544 45.9021 73.3544C50.9639 73.3544 55.0672 69.251 55.0672 64.1892V46.6877C55.0672 41.1648 50.5901 36.6877 45.0672 36.6877H20.4006C19.296 36.6877 18.4006 35.7923 18.4006 34.6877V20.3574C18.4006 19.2528 19.296 18.3574 20.4006 18.3574H45.899C50.9625 18.3574 55.0672 14.2527 55.0672 9.1892C55.0672 4.12574 50.9625 0.0209961 45.899 0.0209961H10.0703Z" fill="white"/>
</svg>
