<svg width="54" height="54" viewBox="0 0 54 54" fill="none" xmlns="http://www.w3.org/2000/svg">
<rect x="5.79639" y="0.496826" width="48" height="48" rx="16" transform="rotate(6.33887 5.79639 0.496826)" fill="#EBFAF2"/>
<g clip-path="url(#clip0_358_11160)">
<path d="M25.8958 36.9386C20.4066 36.3288 16.4512 31.3849 17.061 25.8957C17.6708 20.4064 22.6147 16.4511 28.104 17.0609C33.5932 17.6707 37.5485 22.6146 36.9387 28.1038C36.329 33.5931 31.385 37.5484 25.8958 36.9386ZM24.9426 30.0843C25.2876 30.5156 25.917 30.5855 26.3482 30.2404L32.5942 25.2426C33.0253 24.8977 33.0952 24.2685 32.7502 23.8373C32.4053 23.4061 31.776 23.3363 31.3448 23.6813L25.8796 28.0545L24.0048 25.7112C23.6599 25.28 23.0307 25.2101 22.5995 25.5551C22.1683 25.9 22.0984 26.5292 22.4434 26.9604L24.9426 30.0843Z" fill="#3CCB7E" fill-opacity="0.5"/>
</g>
<defs>
<clipPath id="clip0_358_11160">
<rect width="24" height="24" fill="white" transform="translate(16.3981 13.7483) rotate(6.33887)"/>
</clipPath>
</defs>
</svg>
