<svg width="107" height="107" viewBox="0 0 107 107" fill="none" xmlns="http://www.w3.org/2000/svg">
<rect y="12.1794" width="94.9458" height="94.9458" rx="20" transform="rotate(-7.37016 0 12.1794)" fill="#EBFAF2"/>
<path d="M63.3427 62.9459L63.0449 60.6619L56.1928 61.5556L55.2991 54.7035L62.1512 53.8098L62.747 58.3779L67.315 57.7821L67.9108 62.3502L65.6268 62.6481L66.2225 67.2161L61.6545 67.8119L62.2502 72.3799L57.6822 72.9757L56.7885 66.1236L61.3566 65.5278L61.0587 63.2438L63.3427 62.9459ZM75.3078 65.6346C75.6649 68.3729 73.7346 70.8821 70.9964 71.2393L66.8183 71.7842L66.2225 67.2161L70.7906 66.6203L70.1948 62.0523L74.7629 61.4565L75.3078 65.6346ZM30.1267 39.8001C29.7696 37.0618 31.6999 34.5525 34.4381 34.1954L47.7523 32.459L50.1353 50.7312L31.8631 53.1142L30.1267 39.8001ZM52.3203 31.8632L65.6345 30.1268C68.3728 29.7697 70.882 31.7 71.2392 34.4382L72.9756 47.7524L54.7034 50.1354L52.3203 31.8632ZM32.4589 57.6823L50.7311 55.2992L53.1141 73.5714L39.8 75.3079C37.0617 75.665 34.5524 73.7347 34.1953 70.9965L32.4589 57.6823ZM66.7193 53.2141L73.5713 52.3204L74.1671 56.8885L67.315 57.7821L66.7193 53.2141ZM37.2258 40.8005L37.8216 45.3685L42.3896 44.7728L41.7939 40.2047L37.2258 40.8005ZM40.2046 63.6407L40.8004 68.2088L45.3684 67.613L44.7727 63.045L40.2046 63.6407ZM60.0661 37.8217L60.6618 42.3897L65.2299 41.794L64.6341 37.2259L60.0661 37.8217Z" fill="#3CCB7E"/>
</svg>
