<svg width="80" height="80" viewBox="0 0 80 80" fill="none" xmlns="http://www.w3.org/2000/svg">
<g opacity="0.5">
<rect width="8" height="8" rx="3" fill="#3CCB7E"/>
<rect x="18" width="8" height="8" rx="3" fill="#3CCB7E"/>
<rect x="36" width="8" height="8" rx="3" fill="#3CCB7E"/>
<rect x="54" width="8" height="8" rx="3" fill="#3CCB7E"/>
<rect x="72" width="8" height="8" rx="3" fill="#3CCB7E"/>
<rect y="18" width="8" height="8" rx="3" fill="#3CCB7E"/>
<rect x="18" y="18" width="8" height="8" rx="3" fill="#3CCB7E"/>
<rect x="36" y="18" width="8" height="8" rx="3" fill="#3CCB7E"/>
<rect x="54" y="18" width="8" height="8" rx="3" fill="#3CCB7E"/>
<rect y="36" width="8" height="8" rx="3" fill="#3CCB7E"/>
<rect x="18" y="36" width="8" height="8" rx="3" fill="#3CCB7E"/>
<rect x="36" y="36" width="8" height="8" rx="3" fill="#3CCB7E"/>
<rect y="54" width="8" height="8" rx="3" fill="#3CCB7E"/>
<rect x="18" y="54" width="8" height="8" rx="3" fill="#3CCB7E"/>
<rect x="36" y="54" width="8" height="8" rx="3" fill="#3CCB7E"/>
<rect x="54" y="54" width="8" height="8" rx="3" fill="#3CCB7E"/>
<rect y="72" width="8" height="8" rx="3" fill="#3CCB7E"/>
<rect x="18" y="72" width="8" height="8" rx="3" fill="#3CCB7E"/>
</g>
</svg>
