<?xml version="1.0" standalone="no"?>
<!DOCTYPE svg PUBLIC "-//W3C//DTD SVG 20010904//EN"
 "http://www.w3.org/TR/2001/REC-SVG-20010904/DTD/svg10.dtd">
<svg version="1.0" xmlns="http://www.w3.org/2000/svg"
 width="512.000000pt" height="512.000000pt" viewBox="0 0 512.000000 512.000000"
 preserveAspectRatio="xMidYMid meet">
<metadata>
Created by potrace 1.14, written by Peter Selinger 2001-2017
</metadata>
<g transform="translate(0.000000,512.000000) scale(0.100000,-0.100000)"
fill="#000000" stroke="none">
<path d="M1324 5109 c-459 -22 -688 -112 -945 -368 -116 -116 -191 -220 -250
-345 -73 -156 -102 -311 -119 -626 -13 -249 -13 -2163 0 -2418 20 -396 68
-575 210 -788 68 -101 243 -276 344 -344 213 -142 387 -189 786 -210 249 -13
2163 -13 2418 0 396 20 575 68 788 210 101 68 276 243 344 344 142 213 189
387 210 786 13 249 13 2163 0 2418 -20 396 -68 575 -210 788 -68 101 -243 276
-344 344 -213 142 -387 189 -786 210 -221 11 -2212 11 -2446 -1z m1296 -1359
c0 -5 9 -10 20 -10 22 0 70 -41 70 -60 0 -5 4 -10 8 -10 14 0 42 -69 42 -103
0 -54 -47 -157 -72 -157 -5 0 -18 -8 -29 -19 -29 -27 -80 -31 -385 -31 -150 0
-279 -3 -288 -6 -9 -3 -16 -12 -16 -20 0 -8 -4 -14 -10 -14 -6 0 -10 -60 -10
-160 0 -100 4 -160 10 -160 6 0 10 -7 10 -15 0 -8 10 -17 23 -20 12 -2 156 -6
319 -7 221 -2 300 -6 310 -15 6 -7 18 -13 25 -13 16 0 63 -44 63 -60 0 -5 4
-10 8 -10 5 0 16 -16 25 -35 14 -30 17 -70 17 -263 0 -156 -4 -238 -13 -262
-15 -43 -46 -90 -59 -90 -5 0 -18 -8 -29 -19 -11 -10 -37 -21 -58 -24 -48 -6
-131 3 -131 14 0 5 -7 9 -16 9 -20 0 -49 32 -75 82 -15 30 -19 59 -19 148 0
83 -4 115 -14 126 -12 11 -69 14 -325 14 -201 0 -311 4 -311 10 0 6 -11 10
-25 10 -14 0 -25 3 -25 8 0 4 -14 16 -30 27 -16 11 -30 28 -30 38 0 9 -4 17
-10 17 -5 0 -10 9 -10 20 0 11 -4 20 -10 20 -7 0 -10 157 -10 450 0 293 3 450
10 450 6 0 10 9 10 20 0 11 5 20 10 20 6 0 10 8 10 18 0 9 14 26 30 37 16 11
30 23 30 28 0 4 11 7 25 7 14 0 25 5 25 10 0 7 158 10 455 10 297 0 455 -3
455 -10z m790 0 c0 -5 10 -10 23 -10 25 0 87 -49 87 -68 0 -7 5 -12 10 -12 6
0 10 -11 10 -25 0 -14 5 -25 10 -25 14 0 14 -2066 0 -2075 -5 -3 -10 -18 -10
-33 0 -16 -8 -34 -20 -42 -11 -8 -20 -19 -20 -26 0 -6 -11 -17 -25 -24 -14 -7
-25 -17 -25 -22 0 -4 -9 -8 -20 -8 -11 0 -20 -4 -20 -10 0 -7 -290 -10 -850
-10 -560 0 -850 3 -850 10 0 6 -11 10 -25 10 -14 0 -25 3 -25 8 0 4 -14 16
-30 27 -16 11 -30 28 -30 38 0 9 -3 17 -7 17 -5 0 -14 12 -20 27 -16 34 -19
518 -3 528 6 3 10 15 10 26 0 44 101 108 170 109 50 0 99 -16 120 -40 9 -11
21 -20 24 -20 13 0 36 -28 36 -44 0 -9 5 -16 10 -16 6 0 10 -47 10 -121 0
-112 2 -123 22 -140 20 -18 49 -19 584 -19 309 0 569 3 578 6 14 6 16 96 16
920 0 603 3 914 10 914 6 0 10 11 10 25 0 14 5 25 10 25 6 0 10 7 10 15 0 18
59 74 78 75 6 0 12 5 12 10 0 6 28 10 65 10 37 0 65 -4 65 -10z"/>
</g>
</svg>
