<svg width="70" height="40" viewBox="0 0 70 40" fill="none" xmlns="http://www.w3.org/2000/svg">
<path d="M19.98 14.424L12.996 21.3L20.808 33H14.616L9.504 24.756L7.416 26.7V33H2.412V7.368H7.416V21.084L13.968 14.424H19.98ZM38.9959 27.24C38.4199 29.232 37.3519 30.78 35.7919 31.884C34.2559 32.988 32.4199 33.54 30.2839 33.54C27.4279 33.54 25.1239 32.652 23.3719 30.876C21.6439 29.1 20.7799 26.748 20.7799 23.82C20.7799 20.94 21.6559 18.564 23.4079 16.692C25.1599 14.82 27.3919 13.884 30.1039 13.884C32.9119 13.884 35.1439 14.844 36.7999 16.764C38.4559 18.66 39.2839 21.24 39.2839 24.504V25.008H25.9639C25.9879 26.616 26.3719 27.84 27.1159 28.68C27.8839 29.52 28.9519 29.94 30.3199 29.94C32.1199 29.94 33.3799 29.04 34.0999 27.24H38.9959ZM34.0999 21.768C33.9799 20.544 33.5839 19.548 32.9119 18.78C32.2399 17.988 31.3039 17.592 30.1039 17.592C28.9759 17.592 28.0399 17.964 27.2959 18.708C26.5519 19.452 26.1079 20.472 25.9639 21.768H34.0999ZM69.7478 33H64.5638V21.912C64.5638 20.688 64.3718 19.752 63.9878 19.104C63.6038 18.432 62.8118 18.096 61.6118 18.096C59.2358 18.096 58.0478 19.584 58.0478 22.56V33H52.9358V21.696C52.9358 20.544 52.7438 19.656 52.3598 19.032C51.9758 18.384 51.2318 18.06 50.1278 18.06C47.6558 18.06 46.4198 19.68 46.4198 22.92V33H41.3078V14.424H46.1678V16.98C47.6318 14.94 49.5998 13.92 52.0718 13.92C54.6398 13.92 56.3918 14.94 57.3278 16.98C58.8158 14.94 60.8438 13.92 63.4118 13.92C65.4518 13.92 67.0118 14.52 68.0918 15.72C69.1958 16.896 69.7478 18.492 69.7478 20.508V33Z" fill="#18181B"/>
</svg>
