<svg width="170" height="36" viewBox="0 0 170 36" fill="none" xmlns="http://www.w3.org/2000/svg">
<g clip-path="url(#clip0_833_19975)">
<path fill-rule="evenodd" clip-rule="evenodd" d="M63.9957 28.0566H61.6199V25.666C59.8784 27.6186 57.8749 28.5954 55.6063 28.5954C53.3366 28.5954 51.3957 27.7437 49.7836 26.0393C48.1693 24.3349 47.3633 22.3028 47.3633 19.9409C47.3633 17.5799 48.1746 15.5574 49.7984 13.8731C51.4212 12.1889 53.4013 11.3468 55.7378 11.3468C58.0743 11.3468 60.0354 12.314 61.6189 14.2465V11.7657H63.9946V28.0566H63.9957ZM55.7824 26.2939C57.4051 26.2939 58.803 25.6957 59.9771 24.4993C61.1501 23.304 61.7377 21.8139 61.7377 20.031C61.7377 18.2471 61.1596 16.7537 60.0057 15.5468C58.8518 14.3409 57.439 13.7384 55.7675 13.7384C54.096 13.7384 52.6812 14.3621 51.5283 15.6062C50.3743 16.8524 49.7984 18.3224 49.7984 20.0151C49.7984 21.7099 50.3849 23.18 51.559 24.4251C52.7321 25.6713 54.1395 26.2939 55.7824 26.2939ZM67.0757 27.9792H69.5395V5.80298H67.0757V27.9792ZM88.6357 24.739C87.7971 25.9806 86.6383 26.9723 85.2821 27.609C83.9012 28.2666 82.4057 28.5954 80.7957 28.5954C78.2927 28.5954 76.2012 27.7681 74.5222 26.1136C72.8422 24.4601 72.0033 22.4375 72.0033 20.0469C72.0033 17.6553 72.8475 15.6062 74.5371 13.9028C76.2256 12.1995 78.4115 11.3468 81.0948 11.3468C82.6836 11.3468 84.1493 11.6968 85.4899 12.3936C86.8316 13.0915 87.8795 14.0672 88.6357 15.323L86.698 16.548C85.2471 14.6548 83.3496 13.7087 81.0046 13.7087C79.1571 13.7087 77.6075 14.3027 76.3549 15.4874C75.1034 16.6731 74.4777 18.1431 74.4777 19.8963C74.4777 21.6506 75.0928 23.1556 76.3252 24.4103C77.5577 25.666 79.1168 26.2939 81.0046 26.2939C83.2701 26.2939 85.1771 25.3372 86.7277 23.4239L88.6357 24.739ZM105.267 27.9792H102.806V20.2909C102.806 18.7933 102.763 17.738 102.674 17.1281C102.585 16.5177 102.379 15.9302 102.066 15.3983C101.764 14.8696 101.316 14.4387 100.776 14.1563C100.233 13.8699 99.5812 13.7268 98.8207 13.7268C98.0622 13.7265 97.3148 13.9096 96.6422 14.2603C95.948 14.6161 95.3407 15.1205 94.8636 15.7377C94.3884 16.3307 94.0403 17.0152 93.8412 17.7486C93.6524 18.4581 93.559 19.8772 93.559 22.0059V27.9792H91.0984V5.80298H93.559V14.2889C95.1606 12.3968 97.0569 11.4507 99.2502 11.4507C100.417 11.4507 101.473 11.7509 102.421 12.3522C103.365 12.9484 104.108 13.8136 104.555 14.8362C105.031 15.8904 105.267 17.5121 105.267 19.7001V27.9792ZM124.363 20.3439H110.217C110.316 22.1384 110.913 23.5787 112.007 24.6648C113.103 25.7509 114.409 26.2939 115.929 26.2939C118.513 26.2939 120.487 25.0084 121.848 22.4365L123.919 23.513C122.992 25.2471 121.896 26.5283 120.634 27.3545C119.372 28.1818 117.862 28.5954 116.106 28.5954C113.68 28.5954 111.677 27.7533 110.098 26.069C108.52 24.3848 107.731 22.3569 107.731 19.9865C107.731 17.6139 108.525 15.5818 110.113 13.888C111.702 12.1942 113.669 11.3468 116.017 11.3468C118.366 11.3468 120.329 12.1486 121.907 13.7533C123.485 15.358 124.304 17.5545 124.363 20.3449V20.3439ZM121.641 18.1622C121.344 16.7675 120.673 15.6815 119.628 14.904C118.582 14.1266 117.379 13.7374 116.017 13.7374C113.254 13.7374 111.421 15.2137 110.513 18.1622H121.641ZM150.851 27.9792H148.354V19.1422C148.354 17.7337 148.269 16.7028 148.102 16.0484C147.932 15.394 147.566 14.8425 147.001 14.396C146.437 13.9506 145.693 13.7278 144.771 13.7278C143.849 13.7278 142.982 14.0248 142.17 14.6187C141.356 15.2148 140.791 16.023 140.475 17.0443C140.157 18.0668 139.999 19.5792 139.999 21.5827V27.9781H137.591V19.6778C137.591 18.0519 137.506 16.881 137.338 16.1672C137.18 15.4708 136.787 14.8502 136.224 14.4109C135.648 13.9548 134.925 13.7268 134.053 13.7268C133.18 13.7268 132.353 14.0004 131.57 14.5456C130.797 15.0784 130.193 15.822 129.831 16.688C129.454 17.5704 129.265 19.033 129.265 21.0757V27.9792H126.827V11.7636H129.265V14.0545C130.653 12.2493 132.388 11.3468 134.469 11.3468C135.598 11.3468 136.624 11.649 137.546 12.2546C138.468 12.8592 139.126 13.7183 139.524 14.8277C140.197 13.6981 141.04 12.8337 142.051 12.2398C143.02 11.6563 144.13 11.3476 145.261 11.3468C146.808 11.3468 148.125 11.893 149.216 12.9833C150.306 14.0746 150.851 16.1269 150.851 19.1422V27.9792ZM167.483 11.963L158.009 34.1392H155.486L158.566 26.9271L152.083 11.963H154.605L159.856 23.9521L164.931 11.963H167.483Z" fill="#BABABA" stroke="#BABABA" stroke-width="0.5"/>
<path fill-rule="evenodd" clip-rule="evenodd" d="M18.1263 0.5H21.1416L5.52947 27.8371C5.4711 27.9384 5.44047 28.0534 5.44068 28.1703C5.44089 28.2872 5.47192 28.402 5.53065 28.5031C5.58937 28.6042 5.67372 28.6881 5.77518 28.7462C5.87665 28.8043 5.99164 28.8346 6.10856 28.8341H29.6625L31.2237 31.475H0.728107L18.1263 0.5ZM0.696289 32.8092H32.3925C32.5099 32.8089 32.6252 32.7776 32.7267 32.7185C32.8282 32.6594 32.9123 32.5747 32.9706 32.4727C33.0289 32.3708 33.0593 32.2553 33.0587 32.1378C33.0581 32.0204 33.0266 31.9052 32.9673 31.8038L20.8817 11.3627L22.2786 8.93818L37.9872 35.15H1.93296L0.696289 32.8092ZM39.1379 34.4744L22.8396 7.2794C22.7827 7.17717 22.6985 7.09272 22.5965 7.03543C22.4944 6.97814 22.3785 6.95025 22.2616 6.95485C22.1452 6.95557 22.0311 6.9868 21.9306 7.04542C21.8301 7.10405 21.7468 7.18802 21.6889 7.28894L10.0477 27.4999H7.25826L22.3008 1.16182L40.4796 32.0159L39.139 34.4744H39.1379Z" fill="#BABABA"/>
</g>
<defs>
<clipPath id="clip0_833_19975">
<rect width="168.636" height="35" fill="white" transform="translate(0.696289 0.5)"/>
</clipPath>
</defs>
</svg>
