<svg width="86" height="36" viewBox="0 0 86 36" fill="none" xmlns="http://www.w3.org/2000/svg">
<g clip-path="url(#clip0_833_19941)">
<path d="M15.7041 5.01237C14.708 6.19458 13.1143 7.12702 11.5205 6.99382C11.3213 5.39534 12.1016 3.69696 13.0147 2.64795C14.0108 1.43245 15.7539 0.566603 17.1651 0.5C17.3311 2.16508 16.6836 3.79686 15.7041 5.01237ZM17.1485 7.31018C14.8408 7.17697 12.8653 8.6256 11.7696 8.6256C10.6573 8.6256 8.9805 7.37678 7.15433 7.41009C4.7803 7.44339 2.57229 8.7921 1.36038 10.9401C-1.12985 15.236 0.712919 21.5966 3.12015 25.0932C4.29886 26.8249 5.70999 28.7231 7.56936 28.6565C9.32913 28.5899 10.0264 27.5076 12.1514 27.5076C14.293 27.5076 14.9073 28.6565 16.7666 28.6232C18.6924 28.5899 19.9043 26.8915 21.083 25.1598C22.4278 23.1951 22.9756 21.2802 23.0088 21.1803C22.9756 21.147 19.2901 19.7317 19.2569 15.4691C19.2237 11.9058 22.1621 10.2074 22.295 10.1075C20.6348 7.6432 18.045 7.37678 17.1485 7.31018ZM30.4795 2.48145V28.4401H34.4971V19.5652H40.0586C45.1387 19.5652 48.708 16.0685 48.708 11.0067C48.708 5.94481 45.2051 2.48145 40.1914 2.48145H30.4795ZM34.4971 5.87821H39.1289C42.6153 5.87821 44.6075 7.7431 44.6075 11.0233C44.6075 14.3035 42.6153 16.1851 39.1123 16.1851H34.4971V5.87821ZM56.0459 28.6399C58.5694 28.6399 60.9102 27.3578 61.9727 25.3264H62.0557V28.4401H65.7745V15.519C65.7745 11.7726 62.7862 9.35823 58.1875 9.35823C53.9209 9.35823 50.7666 11.8059 50.6504 15.1694H54.2696C54.5684 13.5709 56.0459 12.5219 58.0713 12.5219C60.5284 12.5219 61.9063 13.6708 61.9063 15.7854V17.2174L56.8926 17.5171C52.2276 17.8002 49.7041 19.715 49.7041 23.0452C49.7041 26.4087 52.3106 28.6399 56.0459 28.6399ZM57.125 25.5595C54.9834 25.5595 53.6221 24.5271 53.6221 22.9453C53.6221 21.3135 54.9336 20.3644 57.4405 20.2146L61.9063 19.9315V21.3968C61.9063 23.8278 59.8477 25.5595 57.125 25.5595ZM70.7383 35.5C74.6563 35.5 76.4991 34.0014 78.1094 29.4558L85.1651 9.60799H81.0811L76.3496 24.9434H76.2666L71.5352 9.60799H67.335L74.1416 28.5067L73.7764 29.6556C73.1621 31.6037 72.1661 32.353 70.3897 32.353C70.0742 32.353 69.46 32.3197 69.211 32.2864V35.4001C69.4434 35.4667 70.4395 35.5 70.7383 35.5Z" fill="#BABABA"/>
</g>
<defs>
<clipPath id="clip0_833_19941">
<rect width="85" height="35" fill="white" transform="translate(0.164062 0.5)"/>
</clipPath>
</defs>
</svg>
