<svg width="81" height="40" viewBox="0 0 81 40" fill="none" xmlns="http://www.w3.org/2000/svg">
<g clip-path="url(#clip0_986_17459)">
<path d="M38.6309 20.65V29.95H35.6309V6.94995H43.4309C45.3309 6.94995 47.1309 7.64995 48.5309 8.94995C49.9309 10.15 50.6309 11.95 50.6309 13.85C50.6309 15.75 49.9309 17.45 48.5309 18.75C47.1309 20.05 45.4309 20.75 43.4309 20.75L38.6309 20.65ZM38.6309 9.74995V17.75H43.6309C44.7309 17.75 45.8309 17.35 46.5309 16.55C48.1309 15.05 48.1309 12.55 46.6309 11.05L46.5309 10.95C45.7309 10.15 44.7309 9.64995 43.6309 9.74995H38.6309Z" fill="#BABABA"/>
<path d="M57.5309 13.75C59.7309 13.75 61.4309 14.35 62.7309 15.55C64.0309 16.75 64.6309 18.35 64.6309 20.35V29.95H61.8309V27.75H61.7309C60.5309 29.55 58.8309 30.45 56.8309 30.45C55.1309 30.45 53.6309 29.95 52.4309 28.95C51.3309 27.95 50.6309 26.55 50.6309 25.05C50.6309 23.45 51.2309 22.15 52.4309 21.15C53.6309 20.15 55.3309 19.75 57.3309 19.75C59.1309 19.75 60.5309 20.05 61.6309 20.75V20.05C61.6309 19.05 61.2309 18.05 60.4309 17.45C59.6309 16.75 58.6309 16.35 57.5309 16.35C55.8309 16.35 54.5309 17.05 53.6309 18.45L51.0309 16.85C52.6309 14.75 54.7309 13.75 57.5309 13.75ZM53.7309 25.15C53.7309 25.95 54.1309 26.65 54.7309 27.05C55.4309 27.55 56.2309 27.85 57.0309 27.85C58.2309 27.85 59.4309 27.35 60.3309 26.45C61.3309 25.55 61.8309 24.45 61.8309 23.25C60.9309 22.55 59.6309 22.15 57.9309 22.15C56.7309 22.15 55.7309 22.45 54.9309 23.05C54.1309 23.55 53.7309 24.25 53.7309 25.15Z" fill="#BABABA"/>
<path d="M80.8309 14.25L70.9309 36.95H67.9309L71.6309 29.05L65.1309 14.35H68.3309L73.0309 25.65H73.1309L77.7309 14.35H80.8309V14.25Z" fill="#BABABA"/>
<path d="M26.7312 18.65C26.7312 17.75 26.6313 16.85 26.5313 15.95H14.0312V21.05H21.1312C20.8312 22.65 19.9313 24.15 18.5313 25.05V28.35H22.8313C25.3313 26.05 26.7312 22.65 26.7312 18.65Z" fill="#BABABA"/>
<path d="M14.0314 31.5499C17.6314 31.5499 20.6314 30.3499 22.8314 28.3499L18.5314 25.0499C17.3314 25.8499 15.8314 26.3499 14.0314 26.3499C10.6314 26.3499 7.63145 24.0499 6.63145 20.8499H2.23145V24.2499C4.53145 28.7499 9.03145 31.5499 14.0314 31.5499Z" fill="#DDDDDD"/>
<path d="M6.63066 20.8499C6.03066 19.2499 6.03066 17.4499 6.63066 15.7499V12.3499H2.23066C0.330664 16.0499 0.330664 20.4499 2.23066 24.2499L6.63066 20.8499Z" fill="#BABABA"/>
<path d="M14.0311 10.3499C15.9311 10.3499 17.7311 11.0499 19.1311 12.3499L22.9311 8.54991C20.5311 6.34991 17.3311 5.04991 14.1311 5.14991C9.13105 5.14991 4.53105 7.94991 2.33105 12.4499L6.73105 15.8499C7.63105 12.6499 10.6311 10.3499 14.0311 10.3499Z" fill="#DDDDDD"/>
</g>
<defs>
<clipPath id="clip0_986_17459">
<rect width="80" height="38.1" fill="white" transform="translate(0.831055 0.949951)"/>
</clipPath>
</defs>
</svg>
