<svg width="68" height="52" viewBox="0 0 68 52" fill="none" xmlns="http://www.w3.org/2000/svg">
<path fill-rule="evenodd" clip-rule="evenodd" d="M19.0656 46.3604V49.1112V51.8619H17.8614V51.194C17.4795 51.6893 16.8999 52.0002 16.1122 52.0002C14.5592 52.0002 13.3417 50.7922 13.3417 49.1112C13.3417 47.4314 14.5592 46.2221 16.1122 46.2221C16.8999 46.2221 17.4795 46.533 17.8614 47.0283V46.3604H19.0656ZM16.2626 47.3497C15.2202 47.3497 14.5823 48.1441 14.5823 49.1111C14.5823 50.0781 15.2202 50.8725 16.2626 50.8725C17.2585 50.8725 17.9309 50.1123 17.9309 49.1111C17.9309 48.1099 17.2585 47.3497 16.2626 47.3497ZM59.759 49.1111C59.759 48.1441 60.3969 47.3497 61.4393 47.3497C62.4366 47.3497 63.1077 48.1099 63.1077 49.1111C63.1077 50.1123 62.4366 50.8725 61.4393 50.8725C60.3969 50.8725 59.759 50.0781 59.759 49.1111ZM64.2443 44.1511V49.1112V51.8619H63.0388V51.194C62.6568 51.6893 62.0773 52.0002 61.2895 52.0002C59.7365 52.0002 58.5191 50.7922 58.5191 49.1112C58.5191 47.4314 59.7365 46.2221 61.2895 46.2221C62.0773 46.2221 62.6568 46.533 63.0388 47.0283V44.1511H64.2443ZM34.0128 47.293C34.7887 47.293 35.2873 47.7765 35.4146 48.6275L32.5408 48.6275C32.6694 47.8331 33.1548 47.293 34.0128 47.293ZM31.2785 49.1112C31.2785 47.3959 32.4137 46.2221 34.037 46.2221C35.5886 46.2221 36.6549 47.3959 36.6668 49.1112C36.6668 49.2719 36.6549 49.4221 36.643 49.5709L32.5304 49.5709C32.7041 50.5616 33.411 50.9186 34.1868 50.9186C34.7425 50.9186 35.334 50.7105 35.7982 50.3429L36.3883 51.2296C35.7159 51.7934 34.952 52.0002 34.1179 52.0002C32.4601 52.0002 31.2785 50.8607 31.2785 49.1112ZM48.578 49.1111C48.578 48.1441 49.2159 47.3497 50.2583 47.3497C51.2543 47.3497 51.9267 48.1099 51.9267 49.1111C51.9267 50.1123 51.2543 50.8725 50.2583 50.8725C49.2159 50.8725 48.578 50.0781 48.578 49.1111ZM53.062 46.3604V49.1112V51.8619H51.8578V51.194C51.4745 51.6893 50.8963 52.0002 50.1085 52.0002C48.5556 52.0002 47.3381 50.7922 47.3381 49.1112C47.3381 47.4314 48.5556 46.2221 50.1085 46.2221C50.8963 46.2221 51.4745 46.533 51.8578 47.0283V46.3604H53.062ZM41.7769 49.1112C41.7769 50.7803 42.9466 52.0002 44.7317 52.0002C45.5659 52.0002 46.1216 51.8158 46.7237 51.3442L46.1454 50.3772C45.6932 50.7 45.2184 50.8725 44.6959 50.8725C43.7344 50.8607 43.0275 50.1704 43.0275 49.1112C43.0275 48.0519 43.7344 47.3616 44.6959 47.3498C45.2184 47.3498 45.6932 47.5223 46.1454 47.8451L46.7237 46.8781C46.1216 46.4065 45.5659 46.2221 44.7317 46.2221C42.9466 46.2221 41.7769 47.442 41.7769 49.1112ZM55.8418 47.0282C56.1548 46.5447 56.607 46.2219 57.3019 46.2219C57.546 46.2219 57.8934 46.2681 58.16 46.3721L57.7887 47.4998C57.534 47.3958 57.2794 47.3615 57.0354 47.3615C56.2476 47.3615 55.8537 47.8674 55.8537 48.7777V51.8618H54.6482V46.3603H55.8418V47.0282ZM25.0221 46.7978C24.4425 46.4184 23.6441 46.2221 22.7635 46.2221C21.3604 46.2221 20.4573 46.89 20.4573 47.9834C20.4573 48.8806 21.1297 49.4339 22.3683 49.6065L22.9373 49.6869C23.5977 49.7791 23.9094 49.9517 23.9094 50.2626C23.9094 50.6881 23.4691 50.9305 22.6468 50.9305C21.8127 50.9305 21.2106 50.6657 20.8048 50.3548L20.2371 51.2862C20.8976 51.7697 21.7318 52.0002 22.6349 52.0002C24.2343 52.0002 25.1613 51.252 25.1613 50.2046C25.1613 49.2376 24.4319 48.7317 23.2264 48.5592L22.6588 48.4775C22.1376 48.409 21.7198 48.3062 21.7198 47.9373C21.7198 47.5342 22.1137 47.2931 22.7742 47.2931C23.481 47.2931 24.1653 47.5579 24.5009 47.7648L25.0221 46.7978ZM39.1008 47.0282C39.4125 46.5447 39.8647 46.2219 40.5597 46.2219C40.8037 46.2219 41.1512 46.2681 41.4177 46.3721L41.0464 47.4998C40.7918 47.3958 40.5371 47.3615 40.2931 47.3615C39.5053 47.3615 39.1115 47.8674 39.1115 48.7777V51.8618H37.9073V46.3603H39.1008V47.0282ZM30.282 46.3604H28.3126V44.6912H27.0951V46.3604H25.9718V47.4538H27.0951V49.9635C27.0951 51.2401 27.5938 52.0002 29.0181 52.0002C29.5406 52.0002 30.1427 51.8395 30.5247 51.5747L30.1772 50.5498C29.8178 50.7566 29.4239 50.8607 29.1109 50.8607C28.5088 50.8607 28.3126 50.4918 28.3126 49.9398V47.4538H30.282V46.3604ZM12.2766 48.4089V51.8618H11.0591V48.8001C11.0591 47.8674 10.6652 47.3497 9.843 47.3497C9.0433 47.3497 8.48763 47.8569 8.48763 48.812V51.8618H7.27018V48.8001C7.27018 47.8674 6.86569 47.3497 6.06599 47.3497C5.24242 47.3497 4.70929 47.8569 4.70929 48.812V51.8618H3.49316L3.49316 46.3603H4.69868V47.0387C5.15091 46.3945 5.72913 46.2219 6.32062 46.2219C7.16673 46.2219 7.76883 46.5908 8.15077 47.2008C8.66136 46.4288 9.39077 46.2101 10.0976 46.2219C11.4424 46.2338 12.2766 47.1086 12.2766 48.4089Z" fill="#BABABA"/>
<path d="M42.8742 37.0125H24.623V4.43018H42.8742V37.0125Z" fill="#E5E7EB"/>
<path d="M25.7813 20.7217C25.7813 14.1123 28.8965 8.22472 33.7478 4.43056C30.2002 1.65609 25.7229 9.53674e-05 20.8571 9.53674e-05C9.33776 9.53674e-05 0 9.27734 0 20.7217C0 32.1661 9.33776 41.4434 20.8571 41.4434C25.7229 41.4434 30.2002 39.7874 33.7478 37.0129C28.8965 33.2187 25.7813 27.3312 25.7813 20.7217Z" fill="#BABABA"/>
<path d="M67.4972 20.7217C67.4972 32.1661 58.1594 41.4434 46.64 41.4434C41.7742 41.4434 37.297 39.7874 33.748 37.0129C38.6006 33.2187 41.7158 27.3312 41.7158 20.7217C41.7158 14.1123 38.6006 8.22472 33.748 4.43056C37.297 1.65609 41.7742 9.53674e-05 46.64 9.53674e-05C58.1594 9.53674e-05 67.4972 9.27734 67.4972 20.7217Z" fill="#BABABA"/>
</svg>
