<svg width="81" height="36" viewBox="0 0 81 36" fill="none" xmlns="http://www.w3.org/2000/svg">
<g clip-path="url(#clip0_833_19943)">
<path d="M23.8347 8.26312H31.1083V5.9477L23.8347 5.92973V8.26312ZM32.971 10.0523H14.3513C14.3513 10.0523 12.4714 10.0523 12.4714 8.26312V5.98221H10.3233V8.26312C10.3233 10.0523 8.42616 10.0523 8.42616 10.0523H4.34407C4.34407 10.0523 2.4248 10.0219 2.4248 8.26312V4.20543H4.37119V8.26312H8.44358V6.01672C8.44358 6.01672 8.44358 4.20561 10.3481 4.20561H12.4716C14.3736 4.20561 14.3736 5.98221 14.3736 5.98221V8.26312H17.1098V4.20543H19.0095V8.26312H21.9549V0.5H23.8176V4.19824H31.1085C32.9711 4.19824 32.9711 5.91319 32.9711 5.91319L32.971 10.0523Z" fill="#BABABA"/>
<path d="M36.398 5.98706H39.0038V8.27552H36.398V5.98706ZM44.0284 10.0496C44.0284 10.0496 45.9131 10.0316 45.9131 8.24856V0.5H44.0677V8.26312H40.9329V5.97969C40.9329 5.97969 40.9159 4.20543 39.0063 4.20543H36.398C34.5402 4.20543 34.6018 6.04853 34.6018 6.04853V8.30248C34.6018 8.30248 34.5404 10.0496 36.398 10.0496H39.0063V11.4425H34.6018V13.2139H38.9817C40.9231 13.2139 40.9329 11.4425 40.9329 11.4425V10.0496H44.0284Z" fill="#BABABA"/>
<path d="M49.095 0.5H47.2422V10.0523H49.095V0.5Z" fill="#BABABA"/>
<path d="M5.10926 17.3256V24.8527H2.4248V15.1182H6.26333L12.8801 22.382V15.1182H15.6186L15.6039 24.8527H12.2081L5.10926 17.3256Z" fill="#BABABA"/>
<path d="M78.0374 25.7878L80.8499 28.0786C68.8174 27.5495 31.0616 28.2 0.498047 35.4997C0.497867 35.4997 26.6668 25.7952 78.0374 25.7878Z" fill="#BABABA"/>
<path d="M76.4546 5.93524C77.3256 6.831 78.8833 8.2113 78.9005 9.2893C78.9005 9.2893 79.0999 10.7534 77.9925 12.4191L77.2543 12.2959C77.2543 12.2959 78.3295 10.5858 78.3295 10.0567C78.3295 9.50803 78.4648 8.79433 77.6577 8.33926C77.6577 8.33926 77.6577 9.85472 78.0416 13.0291C78.0416 13.0291 78.359 15.2805 78.5977 15.9866C79.0922 17.4187 79.272 17.8937 79.272 18.2602C79.272 18.6144 79.1687 18.9665 78.9079 19.5891C78.7308 20.0443 78.1427 22.1629 77.9532 23.0907C77.9532 23.0907 78.0049 23.5634 77.7218 24.0503C77.7218 24.0503 78.1721 24.5918 77.4831 24.8155C77.4831 24.8155 76.6145 24.7262 76.0806 24.7636C76.0806 24.7636 75.1825 24.8957 75.8074 24.2738C75.8074 24.2738 75.9231 24.1096 76.5726 23.8089C76.6736 23.7589 76.6612 23.4742 76.89 23.2183C77.0696 23.0264 77.2886 21.6903 77.8743 19.9356C77.8743 19.9356 76.6736 16.9634 76.3684 16.5204C76.3684 16.5204 76.4077 17.8171 76.43 18.1421C76.4471 18.4077 74.3335 21.8698 74.3335 23.3092C74.3335 23.3092 74.3704 23.4735 74.1439 23.912C74.1439 23.912 74.4588 24.8152 73.9151 24.8152H72.2985C72.2985 24.8152 71.6391 24.5519 72.2689 24.1852L72.9333 23.8727C72.9333 23.8727 73.0244 23.5186 73.2778 23.2726C73.2778 23.2726 73.9692 21.1761 74.7812 19.3772C74.7812 19.3772 75.1035 19.7415 73.9273 15.0193C73.9273 15.0193 73.509 13.3242 73.2949 12.9773C73.2949 12.9773 72.4582 11.3727 72.1063 11.1045C72.1063 11.1045 69.4932 13.2968 64.8622 13.2476L64.525 17.7826C64.525 17.7826 64.3971 18.9784 64.2937 19.7659C64.2937 19.7659 64.3305 21.8646 64.5225 22.999C64.5225 22.999 64.5742 23.3975 64.4388 23.7963C64.4388 23.7963 65.1278 24.6502 64.2321 24.8028L62.6548 24.8207C62.6548 24.8207 61.9954 24.4368 63.3806 23.7625C63.3806 23.7625 63.3905 23.3811 63.5234 23.1227C63.5234 23.1227 63.4963 21.4004 63.3905 19.7516C63.3905 19.7516 63.206 19.2275 63.1617 18.5064C63.1617 18.5064 63.1813 16.9293 62.8172 15.4996C62.8172 15.4996 62.6228 15.9129 62.3151 18.1204C62.3151 18.1204 62.443 18.8411 62.2068 19.7444C62.2068 19.7444 61.9435 22.5348 61.9214 22.9063C61.9214 22.9063 62.0444 23.2212 61.823 23.8218C61.823 23.8218 62.2068 24.5254 61.8007 24.6955C61.6974 24.7347 61.5472 24.7472 61.4316 24.7596C59.8667 24.8526 59.9182 24.7097 59.9182 24.7097C59.9182 24.7097 59.6204 24.3605 60.3267 24.0751C60.4153 24.0465 60.5753 23.8486 60.6737 23.7972C60.6737 23.7972 60.7919 23.2803 60.9838 23.0271C60.9838 23.0271 61.2986 20.8224 61.343 19.5652C61.343 19.5652 61.102 18.9399 61.3504 18.0591C61.3504 18.0591 61.5595 16.3342 61.4833 14.9956C61.4833 14.9956 61.4932 13.758 61.2988 12.641C61.2988 12.641 61.6459 10.9651 59.0769 11.2458C59.0769 11.2458 57.1576 11.1155 56.6211 9.85562C56.6211 9.85562 55.3612 7.09484 55.2702 6.51648C55.0685 5.25911 54.5 4.0163 54.5 4.0163C54.5 4.0163 52.876 3.52421 52.3346 3.30782L51.8942 3.18291C51.8942 3.18291 51.6186 3.20968 51.3332 3.39696C51.215 3.48808 51.0724 3.35221 51.0724 3.35221C51.0724 3.35221 50.8534 3.02241 51.1929 2.69495L51.0232 2.3824C51.0232 2.3824 51.7023 1.14714 52.2585 1.14714C52.2585 1.14714 52.8465 0.979277 53.8185 1.01145C53.8185 1.01145 54.6034 0.327589 55.5852 0.597897C55.5852 0.597897 56.4489 0.920327 57.1699 0.597897C57.1699 0.597897 56.6211 1.46166 57.4355 2.75336C57.4355 2.75336 58.1172 4.57669 58.2796 5.93003C58.3214 6.2893 58.6437 6.55745 59.0054 6.73449C59.3573 6.92392 60.3513 7.13078 61.0723 5.98143C61.0723 5.98143 62.1378 4.91367 63.2179 4.46598C63.2179 4.46598 63.9364 4.1067 64.2931 3.65648C64.6549 3.20843 65.6489 2.1971 66.1878 1.76899C66.739 1.33118 67.9545 0.430571 69.1233 0.610118C70.5874 0.831541 70.8188 0.974064 72.3862 2.39426C72.3862 2.39426 74.3694 4.09933 75.5851 5.1475C75.5851 5.1475 76.3061 5.78499 76.4537 5.93021" fill="#BABABA"/>
<path d="M38.8832 19.9093L45.6918 15.1011H49.0751L42.4094 19.9093L49.0751 24.8354H45.6573L38.8832 19.9093ZM38.7601 24.8354H36.0166V15.1011H38.7601V24.8354Z" fill="#BABABA"/>
<path d="M8.70361 11.3906H6.83105V13.2091H8.70361V11.3906Z" fill="#BABABA"/>
<path d="M5.63777 11.3906H3.7627V13.2091H5.63777V11.3906Z" fill="#BABABA"/>
<path d="M19.0183 0.504883H17.1064V2.32318H19.0183V0.504883Z" fill="#BABABA"/>
<path d="M27.4321 16.8263C28.4114 16.8263 29.1963 17.3333 29.1963 17.9557C29.1963 18.5734 28.4114 19.0899 27.4321 19.0899H21.7234V16.8261M27.4321 23.219H21.7234V20.965H27.4321C28.4114 20.965 29.1963 21.4719 29.1963 22.0995C29.1963 22.7122 28.4114 23.219 27.4321 23.219ZM30.2791 19.9879C30.9705 19.82 31.5438 19.5154 32.0065 19.0826C32.4617 18.6471 32.6365 18.1573 32.6365 17.6552C32.6365 17.2666 32.5454 16.8998 32.265 16.5407C31.8688 16.0164 31.2857 15.6302 30.4983 15.4088C29.8338 15.2071 29.1153 15.1182 27.6538 15.1182H18.9678V24.8479H27.4422C28.8226 24.8479 29.5116 24.7763 30.2128 24.6485C30.9117 24.5039 31.4849 24.2425 31.923 23.8736C32.4348 23.4501 32.6367 22.9016 32.6367 22.2666C32.6367 21.1644 31.8862 20.4214 30.2793 19.9882" fill="#BABABA"/>
</g>
<defs>
<clipPath id="clip0_833_19943">
<rect width="80.3521" height="35" fill="white" transform="translate(0.498047 0.5)"/>
</clipPath>
</defs>
</svg>
