<svg width="105" height="36" viewBox="0 0 105 36" fill="none" xmlns="http://www.w3.org/2000/svg">
<path fill-rule="evenodd" clip-rule="evenodd" d="M26.2511 35.2275H17.164L10.3498 8.07545C10.0264 6.82646 9.33963 5.72228 8.32946 5.20187C5.80847 3.89405 3.03051 2.85322 0 2.32828V1.28293H14.6386C16.6589 1.28293 18.1742 2.85322 18.4267 4.67693L21.9623 24.2626L31.045 1.28293H39.8795L26.2511 35.2275ZM44.9304 35.2275H36.3484L43.4151 1.28293H51.9972L44.9304 35.2275ZM63.1001 10.6865C63.3527 8.85829 64.8679 7.81294 66.6357 7.81294C69.4137 7.55047 72.4397 8.07541 74.9652 9.3787L76.4804 2.07029C73.955 1.02494 71.177 0.5 68.656 0.5C60.3266 0.5 54.2656 5.20182 54.2656 11.7274C54.2656 16.6916 58.5588 19.2982 61.5893 20.8685C64.8679 22.4343 66.1306 23.4796 65.8781 25.0454C65.8781 27.3941 63.3527 28.4394 60.8317 28.4394C57.8012 28.4394 54.7707 27.6565 51.9971 26.3487L50.4819 33.6616C53.5124 34.9649 56.791 35.4899 59.8215 35.4899C69.1611 35.7478 74.9652 31.0505 74.9652 24.0001C74.9652 15.1214 63.1001 14.6009 63.1001 10.6865V10.6865ZM105 35.2275L98.1858 1.28293H90.8665C89.3512 1.28293 87.836 2.32828 87.3309 3.89405L74.7127 35.2275H83.5472L85.3106 30.2677H96.1655L97.1756 35.2275H105ZM92.1292 10.4242L94.6502 23.2173H87.5835L92.1292 10.4242Z" fill="#BABABA"/>
</svg>
